<svg width="385" height="210" viewBox="0 0 385 210" fill="none" xmlns="http://www.w3.org/2000/svg">
<path d="M97.844 0.000160456H211.792V32.9402H97.844V0.000160456ZM3.97637e-05 149.572L30.988 143.472V100.04H6.83204V68.3202H30.988V32.2082H4.88004V0.244157H85.888V32.2082H63.684V68.3202H84.912V100.04H63.684V136.396L89.304 130.54L92.72 160.308C62.952 168.116 31.232 176.168 6.58804 182.756L3.97637e-05 149.572ZM89.06 65.8802H223.992V99.0642H189.1V166.408C189.1 174.948 189.344 175.924 191.784 175.924C192.76 175.924 194.712 175.924 195.444 175.924C198.372 175.924 199.348 171.532 199.836 142.984C206.424 149.084 220.82 154.696 229.604 157.136C226.92 196.42 218.868 208.132 199.104 208.132C194.712 208.132 189.588 208.132 185.44 208.132C160.796 208.132 155.428 197.396 155.428 166.652V99.0642H145.18C142.496 153.72 134.2 189.344 79.3 209.108C75.884 201.056 67.344 188.368 60.512 182.268C106.384 167.14 111.02 142.008 112.24 99.0642H89.06V65.8802ZM324.032 192.028C310.856 192.028 301.096 181.048 301.096 167.628C301.096 154.208 310.856 143.716 324.032 143.716C337.208 143.716 346.968 154.208 346.968 167.628C346.968 181.048 337.208 192.028 324.032 192.028ZM306.464 124.196C300.12 87.3522 344.284 71.9802 344.284 52.4602C344.284 41.2362 334.768 36.3562 322.812 36.3562C310.368 36.3562 302.56 43.9202 293.532 54.4122L270.84 33.1842C284.992 14.8842 304.512 2.44016 327.936 2.44016C359.656 2.44016 384.3 16.8362 384.3 48.8002C384.3 83.2042 339.16 92.4762 342.576 124.196H306.464Z" fill="black"/>
</svg>
