<svg width="27" height="105" viewBox="0 0 27 105" fill="none" xmlns="http://www.w3.org/2000/svg">
<path d="M-0.000140648 11.394C-0.000140648 9.12598 0.539859 7.12798 1.61986 5.39998C2.69986 3.70798 4.21186 2.37598 6.15586 1.40398C8.09986 0.467982 10.3319 -1.84551e-05 12.8519 -1.84551e-05C15.5879 -1.84551e-05 18.0179 0.539982 20.1419 1.61998C22.2659 2.69998 23.9399 4.15798 25.1639 5.99398C26.3879 7.86598 26.9999 9.98998 26.9999 12.366C26.9999 13.626 26.7479 14.868 26.2439 16.092C25.7759 17.316 25.1279 18.342 24.2999 19.17H26.5139C26.6219 19.494 26.7119 19.872 26.7839 20.304C26.8559 20.736 26.8919 21.186 26.8919 21.654C26.8919 22.518 26.7659 23.328 26.5139 24.084H10.2059C8.22586 24.084 6.80386 24.336 5.93986 24.84C5.07586 25.38 4.64386 26.226 4.64386 27.378C4.64386 27.882 4.42786 28.26 3.99586 28.512C3.56386 28.8 2.98786 28.944 2.26786 28.944C1.69186 28.944 1.16986 28.782 0.701859 28.458C0.233859 28.17 -0.000140648 27.684 -0.000140648 27C-0.000140648 23.58 1.40386 21.276 4.21186 20.088C2.87986 19.044 1.83586 17.784 1.07986 16.308C0.359859 14.832 -0.000140648 13.194 -0.000140648 11.394ZM12.8519 5.02198C10.2959 5.02198 8.27986 5.59798 6.80386 6.74998C5.36386 7.93798 4.64386 9.55798 4.64386 11.61C4.64386 13.878 5.41786 15.696 6.96586 17.064C8.51386 18.468 10.5479 19.17 13.0679 19.17H19.1159C20.0879 18.45 20.8619 17.532 21.4379 16.416C22.0499 15.3 22.3559 14.148 22.3559 12.96C22.3559 11.412 21.9419 10.044 21.1139 8.85598C20.2859 7.66798 19.1519 6.73198 17.7119 6.04798C16.3079 5.36398 14.6879 5.02198 12.8519 5.02198ZM4.64386 28.4563C4.64386 29.6083 5.20186 30.7423 6.31786 31.8583C7.43386 33.0103 8.94586 34.0003 10.8539 34.8283C11.6819 34.6843 12.5279 34.6123 13.3919 34.6123C16.0559 34.6123 18.3959 35.1163 20.4119 36.1243C22.4639 37.1323 24.0659 38.5183 25.2179 40.2823C26.4059 42.0823 26.9999 44.1343 26.9999 46.4383C26.9999 48.1663 26.6579 49.7323 25.9739 51.1363C25.3259 52.5763 24.3719 53.7463 23.1119 54.6463C21.6359 54.2143 20.5739 53.1703 19.9259 51.5143C21.5459 50.3263 22.3559 48.6883 22.3559 46.6003C22.3559 44.5123 21.5639 42.8203 19.9799 41.5243C18.4319 40.2643 16.3259 39.6343 13.6619 39.6343C10.9259 39.6343 8.72986 40.4263 7.07386 42.0103C5.41786 43.6303 4.58986 45.9163 4.58986 48.8683C4.58986 49.3363 4.35586 49.7143 3.88786 50.0023C3.45586 50.3263 2.89786 50.4883 2.21386 50.4883C1.52986 50.4883 0.989859 50.3083 0.593859 49.9483C0.197859 49.6243 -0.000140648 49.1563 -0.000140648 48.5443C-0.000140648 45.9883 0.467859 43.7203 1.40386 41.7403C2.33986 39.7603 3.65386 38.1763 5.34586 36.9883C1.78186 34.7563 -0.000140648 31.7863 -0.000140648 28.0783C-0.000140648 27.6103 0.215859 27.2323 0.647859 26.9443C1.07986 26.6563 1.63786 26.5123 2.32186 26.5123C3.86986 26.5123 4.64386 27.1603 4.64386 28.4563ZM-0.000140648 49.6534C-0.000140648 49.1494 0.215859 48.7534 0.647859 48.4654C1.07986 48.1414 1.63786 47.9794 2.32186 47.9794C3.04186 47.9794 3.59986 48.1594 3.99586 48.5194C4.39186 48.8794 4.58986 49.3474 4.58986 49.9234C4.58986 52.0834 5.16586 54.0634 6.31786 55.8634C7.50586 57.6994 9.10786 59.2114 11.1239 60.3994C11.6639 60.3274 12.2399 60.2914 12.8519 60.2914C15.5879 60.2914 18.0179 60.8314 20.1419 61.9114C22.2659 62.9914 23.9399 64.4494 25.1639 66.2854C26.3879 68.1574 26.9999 70.2814 26.9999 72.6574C26.9999 73.9174 26.7479 75.1594 26.2439 76.3834C25.7759 77.6074 25.1279 78.6334 24.2999 79.4614H26.5139C26.6219 79.7854 26.7119 80.1634 26.7839 80.5954C26.8559 81.0274 26.8919 81.4774 26.8919 81.9454C26.8919 82.8094 26.7659 83.6194 26.5139 84.3754H10.2059C8.22586 84.3754 6.80386 84.6274 5.93986 85.1314C5.07586 85.6714 4.64386 86.5174 4.64386 87.6694C4.64386 88.0654 4.73386 88.4974 4.91386 88.9654C5.09386 89.4334 5.36386 89.9194 5.72386 90.4234C5.43586 91.0354 4.93186 91.5394 4.21186 91.9354C3.52786 92.3314 2.84386 92.5114 2.15986 92.4754C1.51186 91.8994 0.989859 91.1614 0.593859 90.2614C0.197859 89.3614 -0.000140648 88.3894 -0.000140648 87.3454V87.2914C-0.000140648 83.8714 1.40386 81.5674 4.21186 80.3794C2.87986 79.3354 1.83586 78.0754 1.07986 76.5994C0.359859 75.1234 -0.000140648 73.4854 -0.000140648 71.6854C-0.000140648 69.5254 0.485859 67.6174 1.45786 65.9614C2.42986 64.3414 3.77986 63.0454 5.50786 62.0734C3.74386 60.5614 2.37586 58.7434 1.40386 56.6194C0.467859 54.4954 -0.000140648 52.1734 -0.000140648 49.6534ZM12.8519 65.3134C10.2959 65.3134 8.27986 65.8894 6.80386 67.0414C5.36386 68.2294 4.64386 69.8494 4.64386 71.9014C4.64386 74.1694 5.41786 75.9874 6.96586 77.3554C8.51386 78.7594 10.5479 79.4614 13.0679 79.4614H19.1159C20.0879 78.7414 20.8619 77.8234 21.4379 76.7074C22.0499 75.5914 22.3559 74.4394 22.3559 73.2514C22.3559 71.7034 21.9419 70.3354 21.1139 69.1474C20.2859 67.9594 19.1519 67.0234 17.7119 66.3394C16.3079 65.6554 14.6879 65.3134 12.8519 65.3134ZM-0.000140648 100.562C-0.000140648 99.5543 0.359859 98.6903 1.07986 97.9703C1.83586 97.2503 2.71786 96.8903 3.72586 96.8903C4.73386 96.8903 5.59786 97.2503 6.31786 97.9703C7.03786 98.6903 7.39786 99.5543 7.39786 100.562C7.39786 101.57 7.03786 102.434 6.31786 103.154C5.59786 103.91 4.73386 104.288 3.72586 104.288C2.71786 104.288 1.83586 103.91 1.07986 103.154C0.359859 102.434 -0.000140648 101.57 -0.000140648 100.562Z" fill="white"/>
</svg>
