<svg width="1096" height="871" viewBox="0 0 1096 871" fill="none" xmlns="http://www.w3.org/2000/svg">
<path d="M0.562314 191.08C5.24565 189.581 11.053 187.427 17.9843 184.617C24.9156 181.62 31.4723 178.529 37.6543 175.344C31.4723 163.355 28.3813 149.492 28.3813 133.756C28.3813 122.141 30.5356 111.932 34.8443 103.127C39.153 94.135 45.1477 87.11 52.8283 82.052C60.509 76.8067 69.22 74.184 78.9613 74.184C87.204 74.184 94.51 76.151 100.879 80.085C107.249 83.8317 112.213 89.077 115.772 95.821C119.332 102.565 121.111 110.339 121.111 119.144C120.362 141.624 104.439 162.886 73.3413 182.931C79.5233 188.176 88.1407 190.799 99.1933 190.799C101.816 190.799 103.877 191.923 105.375 194.171C106.874 196.419 107.623 199.416 107.623 203.163C107.623 206.722 106.78 209.532 105.094 211.593C103.408 213.654 100.973 214.684 97.7883 214.684C88.047 214.684 78.9613 212.998 70.5313 209.626C62.2886 206.067 55.6383 201.196 50.5803 195.014C43.649 198.573 36.2493 202.039 28.3813 205.411C20.7006 208.596 14.144 211.031 8.71131 212.717C5.71398 210.094 3.55965 207.003 2.24831 203.444C0.749648 199.885 0.187648 195.763 0.562314 191.08ZM52.8283 131.508C52.8283 144.809 54.9827 155.861 59.2913 164.666C72.2173 156.049 81.584 148.368 87.3913 141.624C93.1987 134.693 96.2897 127.199 96.6643 119.144C96.6643 112.4 94.9783 107.155 91.6063 103.408C88.4217 99.474 83.9257 97.507 78.1183 97.507C70.8123 97.507 64.724 100.785 59.8533 107.342C55.17 113.899 52.8283 121.954 52.8283 131.508ZM108.855 214.684C106.42 214.684 104.453 213.56 102.954 211.312C101.455 209.064 100.706 206.16 100.706 202.601C100.706 198.854 101.643 195.951 103.516 193.89C105.202 191.829 107.544 190.799 110.541 190.799C121.968 190.799 131.71 187.333 139.765 180.402C148.008 173.471 156.438 161.481 165.055 144.434L180.791 113.805C188.472 98.8183 195.778 88.515 202.709 82.895C209.64 77.0877 217.696 74.184 226.875 74.184C236.804 74.184 245.234 78.118 252.165 85.986C259.284 93.6667 262.843 104.157 262.843 117.458V159.889C262.843 180.308 268.838 190.518 280.827 190.518C288.508 190.518 295.626 187.427 302.183 181.245C308.74 175.063 313.985 167.008 317.919 157.079C322.04 146.963 324.101 136.191 324.101 124.764C324.101 123.265 324.101 121.767 324.101 120.268C315.296 116.896 308.459 112.4 303.588 106.78C304.15 100.785 305.742 95.3527 308.365 90.482C310.988 85.424 314.172 81.49 317.919 78.68C321.853 75.6827 325.6 74.184 329.159 74.184C335.341 74.184 340.305 78.7737 344.052 87.953C347.986 96.945 349.953 108.466 349.953 122.516C349.953 139.938 346.768 155.674 340.399 169.724C334.217 183.587 325.693 194.546 314.828 202.601C303.963 210.656 291.692 214.684 278.017 214.684C265.466 214.684 255.537 210.282 248.231 201.477C240.925 192.485 237.272 180.402 237.272 165.228V121.111C237.272 112.868 236.054 107.061 233.619 103.689C231.184 100.13 228.186 98.35 224.627 98.35C220.88 98.35 217.321 100.692 213.949 105.375C210.764 109.871 206.737 116.896 201.866 126.45L182.477 163.823C173.485 181.058 162.994 193.89 151.005 202.32C139.203 210.563 125.153 214.684 108.855 214.684ZM463.545 214.684C443.313 214.684 426.921 208.315 414.37 195.576C402.006 182.837 394.887 165.228 393.014 142.748C383.46 141.249 373.438 137.877 362.947 132.632C352.456 127.199 343.277 120.83 335.409 113.524C332.974 111.089 331.756 108.372 331.756 105.375C331.756 102.19 332.974 99.193 335.409 96.383C337.657 93.573 340.186 92.168 342.996 92.168C345.431 92.168 348.522 93.7603 352.269 96.945C357.889 101.816 364.539 106.218 372.22 110.152C379.713 113.899 386.738 116.521 393.295 118.02C394.794 106.967 398.259 97.1323 403.692 88.515C409.125 79.7103 416.056 72.779 424.486 67.721C432.916 62.663 442.283 60.134 452.586 60.134C460.454 60.134 467.479 61.82 473.661 65.192C480.03 68.3767 484.995 72.8727 488.554 78.68C492.301 84.3 494.174 90.6693 494.174 97.788C494.174 112.213 488.086 123.827 475.909 132.632C463.732 141.249 447.434 145.558 427.015 145.558C423.83 145.558 420.739 145.371 417.742 144.996C419.241 159.233 424.205 170.473 432.635 178.716C441.065 186.771 451.93 190.799 465.231 190.799C467.666 190.799 469.633 191.923 471.132 194.171C472.631 196.419 473.38 199.416 473.38 203.163C473.38 206.722 472.443 209.532 470.57 211.593C468.884 213.654 466.542 214.684 463.545 214.684ZM451.181 82.895C442.189 82.895 434.602 86.548 428.42 93.854C422.425 100.973 418.866 110.527 417.742 122.516C420.177 122.891 422.519 123.078 424.767 123.078C438.63 123.078 449.589 121.017 457.644 116.896C465.699 112.587 469.727 106.78 469.727 99.474C469.727 94.6033 468.041 90.6693 464.669 87.672C461.297 84.4873 456.801 82.895 451.181 82.895ZM474.901 214.684C472.466 214.684 470.499 213.56 469 211.312C467.502 209.064 466.752 206.16 466.752 202.601C466.752 198.854 467.689 195.951 469.562 193.89C471.248 191.829 473.59 190.799 476.587 190.799C488.015 190.799 497.756 187.333 505.811 180.402C514.054 173.471 522.484 161.481 531.101 144.434L546.837 113.805C554.518 98.8183 561.824 88.515 568.755 82.895C575.687 77.0877 583.742 74.184 592.921 74.184C601.351 74.184 608.47 76.713 614.277 81.771C620.085 86.6417 624.112 93.292 626.36 101.722C631.606 92.9173 638.35 86.1733 646.592 81.49C654.835 76.6193 664.014 74.184 674.13 74.184C688.742 74.184 699.982 78.961 707.85 88.515C715.906 98.069 719.933 111.463 719.933 128.698V161.575C719.933 171.878 721.245 179.278 723.867 183.774C726.677 188.27 731.08 190.518 737.074 190.518C739.697 190.518 741.664 191.642 742.975 193.89C744.474 196.138 745.223 199.135 745.223 202.882C745.223 205.879 744.38 208.596 742.694 211.031C741.196 213.466 738.667 214.684 735.107 214.684C707.944 214.684 694.362 198.011 694.362 164.666V128.698C694.362 108.466 686.401 98.35 670.477 98.35C662.235 98.35 654.929 101.628 648.559 108.185C642.377 114.742 637.507 123.827 633.947 135.442C630.575 147.057 628.889 160.545 628.889 175.906V210.75C627.016 211.312 624.955 211.78 622.707 212.155C620.459 212.53 618.305 212.717 616.244 212.717C611.748 212.717 607.533 212.061 603.599 210.75V121.111C603.599 113.805 602.663 108.185 600.789 104.251C598.916 100.317 595.544 98.35 590.673 98.35C586.927 98.35 583.367 100.692 579.995 105.375C576.811 109.871 572.783 116.896 567.912 126.45L548.523 163.823C539.531 181.058 529.041 193.89 517.051 202.32C505.249 210.563 491.199 214.684 474.901 214.684ZM748.356 190.518C753.039 190.518 758.378 189.113 764.373 186.303C770.555 183.493 776.55 178.716 782.357 171.972C788.164 165.228 792.941 156.142 796.688 144.715C800.435 133.1 802.308 118.582 802.308 101.16V74.184H771.398C770.087 71.1867 769.431 67.44 769.431 62.944C769.431 58.448 770.087 54.7013 771.398 51.704H802.308V1.96699C805.867 0.655653 810.176 -1.67489e-05 815.234 -1.67489e-05C819.73 -1.67489e-05 824.039 0.655653 828.16 1.96699V51.704H870.31C871.809 54.7013 872.558 58.448 872.558 62.944C872.558 67.44 871.809 71.1867 870.31 74.184H828.16V132.351C828.16 151.084 830.97 165.509 836.59 175.625C842.397 185.554 850.546 190.518 861.037 190.518C866.47 190.518 869.186 194.639 869.186 202.882C869.186 206.441 868.249 209.251 866.376 211.312C864.69 213.56 862.255 214.684 859.07 214.684C847.081 214.684 836.871 211.218 828.441 204.287C820.198 197.356 814.016 187.614 809.895 175.063C802.027 188.738 792.379 198.761 780.952 205.13C769.712 211.499 758.191 214.684 746.389 214.684C743.954 214.684 741.987 213.466 740.488 211.031C738.989 208.783 738.24 205.973 738.24 202.601C738.24 199.042 739.083 196.138 740.769 193.89C742.455 191.642 744.984 190.518 748.356 190.518ZM870.413 214.684C867.978 214.684 866.011 213.56 864.512 211.312C863.014 209.064 862.264 206.16 862.264 202.601C862.264 194.546 865.636 190.518 872.38 190.518C878.375 190.518 885.025 186.865 892.331 179.559C899.637 172.066 908.161 160.076 917.902 143.591L947.969 92.73C947.595 90.1073 947.407 87.2973 947.407 84.3C947.407 74.9333 949.093 68.002 952.465 63.506C956.025 59.01 958.928 56.2937 961.176 55.357C964.361 54.6077 967.733 54.7013 971.292 55.638C975.039 56.3873 978.411 57.6987 981.408 59.572C984.406 61.4453 986.466 63.6933 987.59 66.316C986.841 69.688 985.436 73.7157 983.375 78.399C981.315 83.0823 978.036 89.358 973.54 97.226C974.852 99.2867 976.538 101.347 978.598 103.408C980.659 105.469 983.188 107.717 986.185 110.152L1007.54 127.574C1015.22 133.756 1020.94 140.219 1024.68 146.963C1028.62 153.52 1030.58 160.919 1030.58 169.162C1030.58 177.779 1028.43 185.554 1024.12 192.485C1019.81 199.416 1013.82 204.849 1006.14 208.783C998.456 212.717 989.557 214.684 979.441 214.684C972.885 214.684 966.328 213.654 959.771 211.593C953.215 209.72 946.377 206.629 939.258 202.32C938.884 192.391 942.63 185.085 950.498 180.402C960.802 187.146 970.543 190.518 979.722 190.518C987.59 190.518 993.866 188.457 998.549 184.336C1003.23 180.027 1005.57 174.595 1005.57 168.038C1005.57 159.795 1001.08 152.115 992.086 144.996L970.73 128.136C966.984 125.139 963.612 122.048 960.614 118.863L932.514 166.352C922.211 183.774 912.282 196.232 902.728 203.725C893.362 211.031 882.59 214.684 870.413 214.684ZM103.782 729.684C91.9795 729.684 81.5825 726.874 72.5905 721.254C63.7859 715.634 56.8545 707.766 51.7965 697.65C46.9259 687.534 44.4905 675.919 44.4905 662.806C44.4905 648.569 47.3005 635.924 52.9205 624.871C58.5405 613.818 66.1275 605.107 75.6815 598.738C85.4229 592.369 96.4755 589.184 108.84 589.184C115.396 589.184 121.859 590.495 128.229 593.118C134.598 595.553 139.937 598.925 144.246 603.234V591.713C145.932 591.151 147.899 590.683 150.147 590.308C152.395 589.933 154.736 589.746 157.172 589.746C161.668 589.746 165.883 590.402 169.817 591.713V676.575C169.817 686.878 171.128 694.278 173.751 698.774C176.561 703.27 180.963 705.518 186.958 705.518C189.58 705.518 191.547 706.642 192.859 708.89C194.357 711.138 195.107 714.135 195.107 717.882C195.107 720.879 194.264 723.596 192.578 726.031C191.079 728.466 188.55 729.684 184.991 729.684C167.194 729.684 155.205 722.378 149.023 707.766C143.59 714.697 137.033 720.13 129.353 724.064C121.672 727.811 113.148 729.684 103.782 729.684ZM70.6235 662.806C70.6235 676.107 73.6209 686.597 79.6155 694.278C85.7975 701.771 94.2275 705.518 104.906 705.518C116.708 705.518 126.168 701.49 133.287 693.435C140.593 685.38 144.246 674.795 144.246 661.682V630.21C140.499 625.152 135.722 621.124 129.915 618.127C124.107 614.942 118.113 613.35 111.931 613.35C103.875 613.35 96.7565 615.504 90.5745 619.813C84.3925 624.122 79.5219 630.023 75.9625 637.516C72.4032 644.822 70.6235 653.252 70.6235 662.806ZM198.189 705.518C204.745 705.518 211.208 703.364 217.578 699.055C223.947 694.559 230.878 687.44 238.372 677.699V515C238.372 504.884 239.121 495.611 240.62 487.181C242.306 478.751 245.209 471.539 249.331 465.544C252.703 460.486 257.011 456.458 262.257 453.461C267.689 450.276 274.433 448.684 282.489 448.684C297.288 448.684 308.528 455.241 316.209 468.354C324.077 481.467 328.011 500.013 328.011 523.992C328.011 581.129 310.495 630.772 275.464 672.922C287.828 677.043 298.412 685.848 307.217 699.336C313.586 703.457 320.143 705.518 326.887 705.518C329.322 705.518 331.289 706.642 332.788 708.89C334.286 711.138 335.036 714.135 335.036 717.882C335.036 721.441 334.099 724.251 332.226 726.312C330.54 728.56 328.104 729.684 324.92 729.684C323.608 729.684 322.391 729.684 321.267 729.684C324.264 739.051 326.512 749.26 328.011 760.313C329.697 771.553 330.54 783.355 330.54 795.719C330.54 820.072 326.512 838.525 318.457 851.076C310.401 863.815 298.506 870.184 282.77 870.184C267.97 870.184 256.824 864.845 249.331 854.167C242.025 843.676 238.372 828.502 238.372 808.645V711.419C232.002 717.976 225.446 722.659 218.702 725.469C212.145 728.279 204.745 729.684 196.503 729.684C194.067 729.684 192.1 728.56 190.602 726.312C189.103 724.064 188.354 721.16 188.354 717.601C188.354 713.854 189.29 710.951 191.164 708.89C192.85 706.642 195.191 705.518 198.189 705.518ZM282.489 472.007C269.75 472.007 263.381 484.371 263.381 509.099V649.318C276.119 631.896 285.861 612.413 292.605 590.87C299.536 569.139 303.002 546.753 303.002 523.711C303.002 506.851 301.222 494.019 297.663 485.214C294.291 476.409 289.233 472.007 282.489 472.007ZM263.381 811.174C263.381 822.601 264.973 831.406 268.158 837.588C271.53 843.957 276.869 847.142 284.175 847.142C291.293 847.142 296.632 842.459 300.192 833.092C303.938 823.913 305.812 810.799 305.812 793.752C305.812 764.153 301.784 740.362 293.729 722.378C287.547 719.755 281.739 716.664 276.307 713.105C271.061 709.546 266.753 705.799 263.381 701.865V811.174ZM338.129 705.518C344.686 705.518 351.149 703.364 357.518 699.055C363.887 694.559 370.819 687.44 378.312 677.699V515C378.312 504.884 379.061 495.611 380.56 487.181C382.246 478.751 385.15 471.539 389.271 465.544C392.643 460.486 396.952 456.458 402.197 453.461C407.63 450.276 414.374 448.684 422.429 448.684C437.228 448.684 448.468 455.241 456.149 468.354C464.017 481.467 467.951 500.013 467.951 523.992C467.951 581.129 450.435 630.772 415.404 672.922C427.768 677.043 438.352 685.848 447.157 699.336C453.526 703.457 460.083 705.518 466.827 705.518C469.262 705.518 471.229 706.642 472.728 708.89C474.227 711.138 474.976 714.135 474.976 717.882C474.976 721.441 474.039 724.251 472.166 726.312C470.48 728.56 468.045 729.684 464.86 729.684C463.549 729.684 462.331 729.684 461.207 729.684C464.204 739.051 466.452 749.26 467.951 760.313C469.637 771.553 470.48 783.355 470.48 795.719C470.48 820.072 466.452 838.525 458.397 851.076C450.342 863.815 438.446 870.184 422.71 870.184C407.911 870.184 396.764 864.845 389.271 854.167C381.965 843.676 378.312 828.502 378.312 808.645V711.419C371.943 717.976 365.386 722.659 358.642 725.469C352.085 728.279 344.686 729.684 336.443 729.684C334.008 729.684 332.041 728.56 330.542 726.312C329.043 724.064 328.294 721.16 328.294 717.601C328.294 713.854 329.231 710.951 331.104 708.89C332.79 706.642 335.132 705.518 338.129 705.518ZM422.429 472.007C409.69 472.007 403.321 484.371 403.321 509.099V649.318C416.06 631.896 425.801 612.413 432.545 590.87C439.476 569.139 442.942 546.753 442.942 523.711C442.942 506.851 441.162 494.019 437.603 485.214C434.231 476.409 429.173 472.007 422.429 472.007ZM403.321 811.174C403.321 822.601 404.913 831.406 408.098 837.588C411.47 843.957 416.809 847.142 424.115 847.142C431.234 847.142 436.573 842.459 440.132 833.092C443.879 823.913 445.752 810.799 445.752 793.752C445.752 764.153 441.724 740.362 433.669 722.378C427.487 719.755 421.68 716.664 416.247 713.105C411.002 709.546 406.693 705.799 403.321 701.865V811.174ZM478.069 705.518C484.438 705.518 490.62 702.427 496.615 696.245C502.797 689.876 507.949 681.352 512.07 670.674C511.883 668.051 511.789 665.429 511.789 662.806C511.789 648.569 514.599 635.924 520.219 624.871C525.839 613.818 533.426 605.107 542.98 598.738C552.721 592.369 563.774 589.184 576.138 589.184C582.695 589.184 589.158 590.495 595.527 593.118C601.896 595.553 607.235 598.925 611.544 603.234V591.713C613.23 591.151 615.197 590.683 617.445 590.308C619.693 589.933 622.035 589.746 624.47 589.746C628.966 589.746 633.181 590.402 637.115 591.713V674.046C637.115 683.975 638.614 691.749 641.611 697.369C644.796 702.802 650.041 705.518 657.347 705.518C660.532 705.518 662.686 706.829 663.81 709.452C664.934 712.075 665.496 714.885 665.496 717.882C665.496 720.879 664.653 723.596 662.967 726.031C661.468 728.466 658.939 729.684 655.38 729.684C637.021 729.684 624.751 721.441 618.569 704.956C613.136 712.637 606.299 718.725 598.056 723.221C590.001 727.53 581.009 729.684 571.08 729.684C560.215 729.684 550.567 727.342 542.137 722.659C533.894 717.788 527.15 711.138 521.905 702.708C510.29 720.692 495.023 729.684 476.102 729.684C473.667 729.684 471.7 728.56 470.201 726.312C468.702 724.064 467.953 721.16 467.953 717.601C467.953 709.546 471.325 705.518 478.069 705.518ZM537.922 662.806C537.922 676.107 540.919 686.597 546.914 694.278C553.096 701.771 561.526 705.518 572.204 705.518C584.006 705.518 593.466 701.49 600.585 693.435C607.891 685.38 611.544 674.795 611.544 661.682V630.21C607.797 625.152 603.02 621.124 597.213 618.127C591.406 614.942 585.411 613.35 579.229 613.35C571.174 613.35 564.055 615.504 557.873 619.813C551.691 624.122 546.82 630.023 543.261 637.516C539.702 644.822 537.922 653.252 537.922 662.806ZM668.502 705.518C672.436 705.518 676.651 704.3 681.147 701.865C685.643 699.43 689.858 695.683 693.792 690.625C698.475 684.256 701.847 676.95 703.908 668.707C706.156 660.464 707.561 652.128 708.123 643.698V593.118C709.809 592.556 711.776 592.088 714.024 591.713C716.272 591.338 718.613 591.151 721.049 591.151C725.357 591.151 729.572 591.807 733.694 593.118V674.046C733.694 683.975 735.192 691.749 738.19 697.369C741.374 702.802 746.62 705.518 753.926 705.518C757.11 705.518 759.265 706.829 760.389 709.452C761.513 712.075 762.075 714.885 762.075 717.882C762.075 720.879 761.232 723.596 759.546 726.031C758.047 728.466 755.518 729.684 751.959 729.684C732.476 729.684 719.831 720.505 714.024 702.146C711.401 706.455 708.591 710.108 705.594 713.105C700.536 718.163 694.635 722.191 687.891 725.188C681.334 728.185 674.215 729.684 666.535 729.684C663.912 729.684 661.945 728.373 660.634 725.75C659.135 723.315 658.386 720.598 658.386 717.601C658.386 714.416 659.229 711.606 660.915 709.171C662.413 706.736 664.942 705.518 668.502 705.518ZM721.33 552.654C716.084 552.654 711.588 550.781 707.842 547.034C704.095 543.287 702.222 538.791 702.222 533.546C702.222 527.926 704.001 523.336 707.561 519.777C711.307 516.218 715.897 514.438 721.33 514.438C726.95 514.438 731.539 516.218 735.099 519.777C738.658 523.336 740.438 527.926 740.438 533.546C740.438 538.979 738.564 543.568 734.818 547.315C731.258 550.874 726.762 552.654 721.33 552.654ZM763.117 729.684C760.682 729.684 758.715 728.56 757.216 726.312C755.718 724.064 754.968 721.16 754.968 717.601C754.968 709.546 758.34 705.518 765.084 705.518C773.327 705.518 780.633 702.146 787.002 695.402C793.559 688.471 798.711 679.104 802.457 667.302C806.391 655.5 808.358 642.387 808.358 627.962C808.358 624.59 808.171 621.499 807.796 618.689C807.422 615.879 806.953 613.537 806.391 611.664C804.705 609.978 802.832 607.262 800.771 603.515C798.898 599.768 797.212 595.834 795.713 591.713C794.402 587.404 793.746 583.939 793.746 581.316C795.994 577.757 799.554 575.04 804.424 573.167C809.482 571.106 815.009 570.544 821.003 571.481C824.563 578.038 827.466 586.28 829.714 596.209C835.334 596.022 842.921 594.804 852.475 592.556C858.47 591.245 863.247 590.402 866.806 590.027C870.553 589.465 873.738 589.184 876.36 589.184C886.476 589.184 894.438 593.024 900.245 600.705C906.053 608.198 908.956 618.408 908.956 631.334V676.575C908.956 686.878 910.268 694.278 912.89 698.774C915.7 703.27 920.103 705.518 926.097 705.518C928.72 705.518 930.687 706.642 931.998 708.89C933.497 711.138 934.246 714.135 934.246 717.882C934.246 720.879 933.403 723.596 931.717 726.031C930.219 728.466 927.69 729.684 924.13 729.684C896.967 729.684 883.385 713.011 883.385 679.666V636.111C883.385 627.681 882.449 621.78 880.575 618.408C878.702 615.036 875.33 613.35 870.459 613.35C868.773 613.35 866.9 613.537 864.839 613.912C862.779 614.287 859.126 615.036 853.88 616.16C844.701 618.033 837.77 619.157 833.086 619.532C833.274 622.529 833.367 625.527 833.367 628.524C833.367 648.756 830.464 666.459 824.656 681.633C818.849 696.807 810.606 708.609 799.928 717.039C789.438 725.469 777.167 729.684 763.117 729.684ZM935.438 729.684C933.003 729.684 931.036 728.56 929.537 726.312C928.039 724.064 927.289 721.16 927.289 717.601C927.289 709.546 930.661 705.518 937.405 705.518C943.4 705.518 950.05 701.865 957.356 694.559C964.662 687.066 973.186 675.076 982.927 658.591L1012.99 607.73C1012.62 605.107 1012.43 602.297 1012.43 599.3C1012.43 589.933 1014.12 583.002 1017.49 578.506C1021.05 574.01 1023.95 571.294 1026.2 570.357C1029.39 569.608 1032.76 569.701 1036.32 570.638C1040.06 571.387 1043.44 572.699 1046.43 574.572C1049.43 576.445 1051.49 578.693 1052.62 581.316C1051.87 584.688 1050.46 588.716 1048.4 593.399C1046.34 598.082 1043.06 604.358 1038.57 612.226C1039.88 614.287 1041.56 616.347 1043.62 618.408C1045.68 620.469 1048.21 622.717 1051.21 625.152L1072.57 642.574C1080.25 648.756 1085.96 655.219 1089.71 661.963C1093.64 668.52 1095.61 675.919 1095.61 684.162C1095.61 692.779 1093.45 700.554 1089.15 707.485C1084.84 714.416 1078.84 719.849 1071.16 723.783C1063.48 727.717 1054.58 729.684 1044.47 729.684C1037.91 729.684 1031.35 728.654 1024.8 726.593C1018.24 724.72 1011.4 721.629 1004.28 717.32C1003.91 707.391 1007.66 700.085 1015.52 695.402C1025.83 702.146 1035.57 705.518 1044.75 705.518C1052.62 705.518 1058.89 703.457 1063.57 699.336C1068.26 695.027 1070.6 689.595 1070.6 683.038C1070.6 674.795 1066.1 667.115 1057.11 659.996L1035.76 643.136C1032.01 640.139 1028.64 637.048 1025.64 633.863L997.539 681.352C987.236 698.774 977.307 711.232 967.753 718.725C958.387 726.031 947.615 729.684 935.438 729.684Z" fill="url(#paint0_linear_653_11397)"/>
<defs>
<linearGradient id="paint0_linear_653_11397" x1="1132.95" y1="472.75" x2="2.94629" y2="472.75" gradientUnits="userSpaceOnUse">
<stop stop-color="#2F9EBD"/>
<stop offset="1" stop-color="#D14B4B"/>
</linearGradient>
</defs>
</svg>
